<svg width="28" height="28" fill="none" xmlns="http://www.w3.org/2000/svg"><path d="M6.72 0c-.292 0-.59.107-.802.318-.21.211-.318.51-.318.802v1.12H2.24c-.292 0-.59.107-.802.318-.21.211-.318.51-.318.802v22.4c0 .292.107.59.318.802.212.21.51.318.802.318h23.52c.293 0 .59-.107.802-.318a1.14 1.14 0 00.318-.802V3.36c0-.292-.107-.59-.318-.802a1.138 1.138 0 00-.802-.318H22.4V1.12c0-.292-.107-.59-.318-.802A1.138 1.138 0 0021.28 0h-1.12c-.292 0-.59.107-.802.318-.21.211-.318.51-.318.802v1.12H8.96V1.12c0-.292-.107-.59-.318-.802A1.139 1.139 0 007.84 0H6.72zm0 1.12h1.12v3.36H6.72V1.12zm13.44 0h1.12v1.586a.56.56 0 000 .183V4.48h-1.12V1.12zM2.24 3.36H5.6v1.12c0 .292.107.59.318.802.212.21.51.318.802.318h1.12c.293 0 .59-.107.802-.318a1.14 1.14 0 00.318-.802V3.36h10.08v1.12c0 .292.107.59.318.802.212.21.51.318.802.318h1.12c.293 0 .59-.107.802-.318a1.14 1.14 0 00.318-.802V3.36h3.36v3.92H2.24V3.36zm0 5.04h23.52v17.36H2.24V8.4zm7.831 2.232a.562.562 0 00-.08.008h-3.83a.56.56 0 00-.56.56v3.826a.56.56 0 000 .183v3.737a.56.56 0 000 .183v3.831a.56.56 0 00.56.56h3.825c.06.01.122.01.183 0h3.737c.06.01.122.01.183 0h3.737c.06.01.122.01.183 0h3.831a.56.56 0 00.56-.56v-3.826a.56.56 0 000-.183v-3.737a.56.56 0 000-.183V11.2a.56.56 0 00-.56-.56h-3.826a.56.56 0 00-.183 0h-3.737a.56.56 0 00-.182 0h-3.738a.562.562 0 00-.103-.008zm-3.35 1.128h2.8v2.8h-2.8v-2.8zm3.92 0h2.8v2.8h-2.8v-2.8zm3.92 0h2.8v2.8h-2.8v-2.8zm3.92 0h2.8v2.8h-2.8v-2.8zM6.72 15.68h2.8v2.8h-2.8v-2.8zm3.92 0h2.8v2.8h-2.8v-2.8zm3.92 0h2.8v2.8h-2.8v-2.8zm3.92 0h2.8v2.8h-2.8v-2.8zM6.72 19.6h2.8v2.8h-2.8v-2.8zm3.92 0h2.8v2.8h-2.8v-2.8zm3.92 0h2.8v2.8h-2.8v-2.8zm3.92 0h2.8v2.8h-2.8v-2.8z" fill="#606571"/></svg>