<svg width="50" height="50" fill="none" xmlns="http://www.w3.org/2000/svg"><path d="M25.012 12C11.967 12 1.76 24.35 1.76 24.35a1.013 1.013 0 000 1.3S11.967 38 25.012 38c13.046 0 23.253-12.35 23.253-12.35a1.013 1.013 0 000-1.3S38.058 12 25.012 12zm0 2c2.61 0 5.101.553 7.407 1.404 1.538 1.804 2.38 3.99 2.38 6.596 0 5.564-4.34 10-9.787 10-5.445 0-9.786-4.436-9.786-10 0-2.47.933-4.784 2.391-6.6 2.303-.848 4.79-1.4 7.395-1.4zm-10.575 2.81A12.297 12.297 0 0013.269 22c0 6.636 5.25 12 11.743 12 6.494 0 11.744-5.364 11.744-12 0-1.866-.391-3.6-1.106-5.158 5.538 2.878 9.51 7.055 10.507 8.158-1.56 1.726-10.387 11-21.144 11-10.758 0-19.584-9.274-21.145-11 1.001-1.107 4.999-5.31 10.569-8.19zm10.575.19a4.84 4.84 0 00-3.46 1.465A5.055 5.055 0 0020.12 22c0 1.326.516 2.598 1.433 3.535A4.84 4.84 0 0025.012 27a4.841 4.841 0 003.46-1.465A5.056 5.056 0 0029.907 22a5.056 5.056 0 00-1.433-3.535A4.841 4.841 0 0025.013 17z" fill="#fff"/></svg>