<svg width="46" height="46" fill="none" xmlns="http://www.w3.org/2000/svg"><path d="M46 23c0-3.345-1.901-6.265-4.676-7.74.758-2.888.019-6.098-2.234-8.351a8.622 8.622 0 00-6.119-2.521c-.751 0-1.502.096-2.232.288C29.265 1.901 26.345 0 23 0c-3.345 0-6.265 1.901-7.74 4.676a8.784 8.784 0 00-2.232-.288 8.622 8.622 0 00-6.119 2.521c-2.253 2.253-2.992 5.462-2.234 8.351C1.901 16.735 0 19.655 0 23c0 3.345 1.901 6.265 4.676 7.74-.758 2.888-.019 6.098 2.234 8.351a8.622 8.622 0 006.119 2.521c.751 0 1.502-.096 2.232-.288C16.735 44.099 19.655 46 23 46c3.345 0 6.265-1.901 7.74-4.676a8.784 8.784 0 002.232.288 8.622 8.622 0 006.119-2.521c2.253-2.253 2.992-5.462 2.234-8.351C44.099 29.265 46 26.345 46 23zm-26.286 7.985l-7.278-7.278 1.414-1.414 5.864 5.864L32.15 15.722l1.414 1.414-13.85 13.849z" fill="#606571"/></svg>