<svg width="22" height="21" fill="none" xmlns="http://www.w3.org/2000/svg"><g clip-path="url(#clip0_51_1113)"><path d="M11.693 2.1c-3.645 0-4.999 2.878-3.957 5.316-.13.088-.338.365-.295.853.087.886.477 1.097.694 1.142.086.841.608 1.822.912 1.955 0 .576-.008 1.058-.052 1.68-.664 1.784-4.913 1.37-5.459 4.568-.024.14.117.446.398.446h13.963c.417 0 .409-.315.385-.46-.556-3.184-4.794-2.772-5.46-4.554a23.205 23.205 0 01-.05-1.68c.303-.133.786-1.158.873-1.955.217 0 .564-.268.694-1.155.043-.488-.135-.796-.309-.84.694-.886.569-4.515-1.99-4.515l-.347-.801zm-4.83 2.1c-2.744.048-3.947 2.279-3.121 4.187-.089.044-.262.279-.219.682.089.719.35.893.527.893.087.672.475 1.427.694 1.562 0 .448.004.435-.039.971C4.35 13.643.633 13.558.633 16.38c0 0 0 .42.411.42h1.863c.628-1.815 2.334-2.514 3.622-3.032.71-.285 1.437-.574 1.657-.932.024-.39.037-.722.039-1.09-.39-.455-.681-1.166-.823-1.771-.333-.253-.695-.738-.783-1.64a1.92 1.92 0 01.193-1.064c-.326-1.035-.305-2.116.051-3.071zm9.39 0c-.394 0-.858.033-1.298.105.33.986.342 2.164.052 3.006.128.288.187.64.154 1.023l-.013.027v.026c-.122.825-.42 1.327-.77 1.601-.134.568-.405 1.285-.784 1.746.001.36.014.685.038 1.102.22.358.95.647 1.657.932 1.286.517 2.993 1.217 3.622 3.032h1.863c.41 0 .41-.407.41-.407.002-3.248-3.517-2.479-4.045-3.964-.045-.495-.052-.45-.052-.945.22-.134.625-.89.668-1.522.177 0 .439-.186.527-.906.043-.36-.087-.625-.218-.67.53-.72.443-3.556-1.542-3.556l-.27-.63z" fill="#fff"/></g><defs><clipPath id="clip0_51_1113"><path fill="#fff" transform="translate(.633)" d="M0 0h20.552v21H0z"/></clipPath></defs></svg>