<svg width="41" height="41" fill="none" xmlns="http://www.w3.org/2000/svg"><path d="M30.284 2.46c-1.541.028-2.78.476-3.623 1.29-.843.812-1.236 1.941-1.265 3.125v.002c-.019.772.141 1.468.325 2.234a1.75 1.75 0 00-.3 1.22c.072.589.234 1.042.504 1.386.123.158.304.17.462.264.168.553.396 1.078.715 1.498.204.268.413.508.604.703.045.047.101.075.14.115.004.417.005.807-.025 1.24-.1.216-.403.476-1.054.745-.368.151-.81.303-1.276.467.024-.223.043-.458.046-.72v-.002c.009-.774-.117-1.596-.55-2.32-.403-.673-1.14-1.182-2.059-1.372-.584-.583-1.405-.855-2.329-.855h-.014c-1.541.028-2.78.476-3.623 1.29-.843.812-1.234 1.941-1.263 3.126v.001c-.007.29.018.57.053.846-.558-.19-1.1-.361-1.55-.53-.672-.254-.99-.517-1.07-.676-.03-.43-.028-.82-.025-1.235.04-.04.095-.069.141-.115.192-.195.4-.433.606-.702.32-.42.549-.946.717-1.499.16-.095.342-.106.466-.264.27-.344.43-.798.502-1.386v-.001a1.739 1.739 0 00-.303-1.225c.154-.578.308-1.208.319-2.097.008-.774-.117-1.597-.551-2.322-.403-.672-1.14-1.181-2.059-1.371-.583-.583-1.403-.855-2.327-.855h-.016c-1.54.028-2.778.476-3.62 1.29-.844.812-1.237 1.941-1.266 3.125v.002c-.019.772.141 1.468.325 2.234a1.75 1.75 0 00-.3 1.219v.001c.072.59.233 1.043.504 1.387.124.159.306.168.466.263.167.552.392 1.078.71 1.497.205.269.414.507.605.702.045.047.101.075.14.115.004.419.006.81-.025 1.245-.083.18-.28.383-.755.608-.502.239-1.209.46-1.955.732-.746.272-1.54.596-2.24 1.125-.701.528-1.3 1.298-1.53 2.315a.82.82 0 101.598.36c.14-.617.445-1.009.918-1.365.473-.357 1.122-.64 1.816-.894.695-.253 1.427-.474 2.095-.791.668-.317 1.342-.765 1.635-1.554a.82.82 0 00.048-.213c.069-.763.043-1.299.043-1.928a.82.82 0 00-.438-.726c.133.07-.04-.036-.178-.176a6.028 6.028 0 01-.47-.547c-.321-.424-.574-.97-.587-1.098a.82.82 0 00-.614-.707c-.027-.038-.112-.177-.157-.545-.01-.088.004-.132.016-.157a.82.82 0 00.303-.862c-.238-.915-.35-1.49-.333-2.202.022-.862.276-1.515.764-1.986.486-.468 1.26-.803 2.498-.83h.002c.827.001 1.25.267 1.304.361a.82.82 0 00.6.407c.599.083.86.306 1.073.661.213.356.324.893.318 1.461-.012.929-.16 1.631-.308 2.074a.82.82 0 00.288.918c.013.025.027.068.016.153-.044.37-.13.509-.157.547a.82.82 0 00-.613.707c-.014.126-.266.672-.59 1.096a6.039 6.039 0 01-.472.548c-.138.14-.313.247-.18.177a.82.82 0 00-.44.726c0 .628-.025 1.165.043 1.928a.82.82 0 00.049.213c.356.955 1.244 1.355 2.074 1.668.75.282 1.538.504 2.203.767-.092.239-.143.51-.104.834v.002c.071.588.232 1.041.502 1.385.124.159.306.17.466.266.167.552.394 1.076.712 1.496.204.268.412.508.602.703.046.047.102.074.141.115.004.416.005.807-.025 1.238-.103.224-.432.495-1.123.774-.477.192-1.063.379-1.674.605.117-.48.22-1.003.23-1.706.008-.774-.117-1.597-.551-2.322-.403-.672-1.14-1.184-2.062-1.372-.583-.582-1.402-.854-2.324-.854h-.014c-1.541.028-2.78.476-3.623 1.29-.843.812-1.236 1.941-1.265 3.126v.001c-.019.772.141 1.468.325 2.234a1.75 1.75 0 00-.3 1.22c.072.589.234 1.042.504 1.386.123.158.304.17.462.264.168.553.396 1.078.715 1.498.204.268.413.508.604.703.045.047.101.075.14.115.004.418.006.81-.025 1.243-.083.18-.282.383-.756.608-.503.239-1.208.462-1.954.734-.746.272-1.542.596-2.242 1.124-.7.529-1.3 1.297-1.53 2.315a.82.82 0 001.6.362c.14-.618.445-1.011.918-1.368.473-.357 1.12-.639 1.815-.892.694-.253 1.428-.474 2.096-.791.668-.317 1.34-.766 1.634-1.555a.82.82 0 00.048-.213c.068-.763.044-1.3.044-1.929a.82.82 0 00-.44-.725c.134.07-.04-.035-.178-.175a6.027 6.027 0 01-.469-.548c-.322-.423-.574-.97-.588-1.098a.82.82 0 00-.61-.707c-.027-.037-.114-.176-.159-.546-.01-.088.004-.132.016-.157a.82.82 0 00.303-.861c-.238-.916-.35-1.49-.333-2.203.021-.862.274-1.515.762-1.985.487-.47 1.264-.804 2.505-.828.823.002 1.247.264 1.3.357a.82.82 0 00.6.407c.598.083.86.307 1.073.663.213.355.325.892.319 1.46-.012.93-.16 1.631-.308 2.074a.82.82 0 00.287.916c.012.025.026.068.016.156-.045.37-.132.51-.159.547a.82.82 0 00-.61.707c-.014.125-.267.671-.591 1.095a6.046 6.046 0 01-.47.548c-.139.14-.314.245-.182.176a.82.82 0 00-.439.727c0 .628-.027 1.166.042 1.928a.82.82 0 00.34.593c.343.53.83.92 1.366 1.174.668.317 1.401.538 2.096.791.694.253 1.342.537 1.815.894.473.357.778.748.917 1.366a.818.818 0 001.277.498.82.82 0 00.323-.858c-.23-1.017-.83-1.788-1.53-2.316-.701-.529-1.495-.852-2.241-1.125-.747-.272-1.452-.493-1.954-.732-.489-.231-.703-.443-.779-.626a15.295 15.295 0 01-.025-1.225c.04-.04.096-.068.142-.115.192-.195.4-.433.606-.702.32-.42.549-.945.717-1.499.16-.095.342-.106.466-.264.257-.328.413-.759.489-1.307.667-.266 1.392-.5 2.085-.78.846-.34 1.734-.788 2.093-1.754a.82.82 0 00.048-.212c.069-.763.043-1.3.043-1.929a.82.82 0 00-.438-.725c.133.07-.04-.035-.178-.175a6.025 6.025 0 01-.47-.548c-.322-.423-.574-.97-.587-1.098a.82.82 0 00-.614-.708c-.027-.038-.112-.176-.157-.545-.01-.09.005-.134.018-.158a.82.82 0 00.303-.86c-.238-.916-.35-1.49-.333-2.203.02-.862.274-1.515.762-1.985.486-.47 1.263-.804 2.505-.828.821.002 1.247.264 1.3.357a.819.819 0 00.6.407c.598.083.86.307 1.072.663.213.355.326.89.319 1.459-.011.928-.16 1.633-.307 2.075a.82.82 0 00.286.915c.013.024.027.067.016.155v.002c-.044.37-.132.509-.158.546a.82.82 0 00-.61.706c-.014.126-.268.673-.591 1.097a6.061 6.061 0 01-.471.548c-.139.14-.314.245-.181.176a.82.82 0 00-.44.726c0 .627-.026 1.165.043 1.928a.817.817 0 00.05.213c.357.96 1.252 1.359 2.086 1.672.607.228 1.224.42 1.799.623.001.054-.004.103.003.16v.002c.07.588.233 1.041.503 1.385.123.158.304.17.462.264.168.553.396 1.078.715 1.498.204.268.413.508.604.703.045.047.101.075.14.115.004.418.006.81-.025 1.243-.083.18-.282.383-.756.608-.503.239-1.208.462-1.954.734-.746.272-1.542.596-2.242 1.124-.7.529-1.3 1.297-1.53 2.315a.82.82 0 001.6.362c.14-.618.445-1.011.918-1.368.473-.357 1.12-.639 1.815-.892.694-.253 1.428-.474 2.096-.791.668-.317 1.34-.766 1.634-1.555a.82.82 0 00.048-.213c.068-.763.044-1.3.044-1.929a.821.821 0 00-.44-.725c.134.07-.04-.035-.178-.175a6.025 6.025 0 01-.469-.548c-.322-.423-.574-.97-.588-1.098a.82.82 0 00-.61-.707c-.027-.037-.114-.176-.159-.546v-.008a.82.82 0 00.119-.242.819.819 0 00.2-.768c-.238-.916-.35-1.49-.333-2.203.021-.862.274-1.515.762-1.985.487-.47 1.264-.804 2.505-.828.823.002 1.247.264 1.3.357a.82.82 0 00.6.407c.598.083.86.307 1.073.663.213.355.325.892.318 1.46-.01.93-.16 1.631-.307 2.074a.82.82 0 00.287.916c.012.025.026.067.016.156-.045.37-.132.51-.159.547a.82.82 0 00-.61.707c-.014.125-.267.671-.591 1.095a6.046 6.046 0 01-.47.548c-.139.14-.314.245-.182.176a.82.82 0 00-.439.727c0 .628-.027 1.166.042 1.928a.82.82 0 00.34.593c.343.53.83.92 1.366 1.174.668.317 1.401.538 2.096.791.695.253 1.342.537 1.815.894.473.357.778.748.917 1.366a.818.818 0 001.277.498.82.82 0 00.323-.858c-.23-1.017-.83-1.788-1.53-2.316-.701-.529-1.495-.852-2.241-1.125-.747-.272-1.452-.493-1.954-.732-.489-.231-.703-.443-.779-.626a15.295 15.295 0 01-.025-1.225c.04-.04.096-.068.142-.115.192-.195.4-.433.606-.702.32-.42.549-.945.717-1.499.16-.095.342-.106.466-.264.27-.344.43-.798.502-1.385v-.002a1.74 1.74 0 00-.303-1.225c.154-.578.308-1.207.319-2.097.008-.774-.117-1.597-.551-2.322-.403-.672-1.14-1.184-2.062-1.372-.583-.582-1.402-.854-2.323-.854h-.015c-1.541.028-2.78.476-3.623 1.29-.843.812-1.236 1.941-1.265 3.126v.001c-.013.552.076 1.072.19 1.6-.502-.167-.984-.313-1.391-.466-.681-.255-1.003-.521-1.081-.68-.03-.43-.03-.82-.026-1.234.04-.04.096-.068.143-.115.191-.195.4-.435.605-.703.32-.42.55-.944.718-1.498.159-.095.342-.106.466-.264.27-.344.43-.798.501-1.387a1.688 1.688 0 00-.1-.822c.641-.243 1.322-.464 1.97-.731.815-.337 1.663-.786 2.01-1.72a.82.82 0 00.049-.214c.068-.762.044-1.298.044-1.928a.821.821 0 00-.44-.725c.134.07-.04-.035-.178-.175a6.025 6.025 0 01-.469-.548c-.322-.423-.574-.97-.588-1.098a.82.82 0 00-.61-.707c-.027-.037-.114-.176-.159-.546-.01-.088.004-.132.017-.157a.82.82 0 00.302-.861c-.238-.916-.35-1.49-.333-2.202.021-.863.274-1.516.762-1.986.487-.47 1.264-.804 2.505-.828.823.002 1.247.264 1.3.357a.82.82 0 00.6.407c.598.083.86.307 1.073.663.213.355.325.892.318 1.46-.01.93-.16 1.631-.307 2.074a.82.82 0 00.287.916c.012.025.026.067.016.156-.045.37-.132.51-.159.547a.82.82 0 00-.61.707c-.014.126-.267.671-.591 1.095a6.046 6.046 0 01-.47.548c-.139.14-.314.245-.182.176a.82.82 0 00-.439.727c0 .628-.027 1.166.042 1.928a.82.82 0 00.34.593c.343.53.83.92 1.366 1.174.668.317 1.401.538 2.096.791.695.253 1.342.537 1.815.894.473.357.778.748.917 1.366a.818.818 0 001.277.498.82.82 0 00.323-.858c-.23-1.017-.83-1.788-1.53-2.316-.701-.528-1.495-.852-2.241-1.124-.747-.273-1.452-.494-1.954-.733-.489-.231-.703-.442-.779-.626a15.295 15.295 0 01-.025-1.225c.04-.04.096-.068.142-.115.192-.195.4-.433.606-.702.32-.42.549-.945.717-1.499.16-.095.342-.106.466-.264.27-.344.43-.798.502-1.385v-.002a1.74 1.74 0 00-.303-1.225c.154-.578.308-1.207.319-2.097.008-.774-.117-1.597-.551-2.322-.403-.672-1.14-1.184-2.062-1.372-.583-.582-1.402-.854-2.323-.854h-.015z" fill="url(#paint0_linear_51_1239)"/><defs><linearGradient id="paint0_linear_51_1239" x1="20.485" y1="2.46" x2="20.485" y2="38.551" gradientUnits="userSpaceOnUse"><stop stop-color="#FFC619"/><stop offset=".479" stop-color="#F69020"/><stop offset="1" stop-color="#EA422A"/></linearGradient></defs></svg>