<svg width="41" height="41" fill="none" xmlns="http://www.w3.org/2000/svg"><path d="M12.516 1.704A20.273 20.273 0 001.704 12.516l1.512.634a18.654 18.654 0 019.934-9.934l-.634-1.512zM20.5 3.28C11 3.28 3.28 11 3.28 20.5S11 37.72 20.5 37.72 37.72 30 37.72 20.5 30 3.28 20.5 3.28zm0 1.64c8.614 0 15.58 6.966 15.58 15.58S29.114 36.08 20.5 36.08 4.92 29.114 4.92 20.5 11.886 4.92 20.5 4.92zm-.82 3.28v10.883a1.64 1.64 0 001.244 3.001l4.736 4.736 1.16-1.16-4.738-4.737a1.64 1.64 0 00-.762-1.842V8.2h-1.64zm18.109 19.64c-1.949 4.475-5.483 8.076-9.94 9.944l.635 1.512c4.864-2.04 8.697-5.956 10.807-10.801l-1.502-.655z" fill="url(#paint0_linear_51_1258)"/><defs><linearGradient id="paint0_linear_51_1258" x1="20.498" y1="1.704" x2="20.498" y2="39.296" gradientUnits="userSpaceOnUse"><stop stop-color="#FFC619"/><stop offset=".484" stop-color="#F69020"/><stop offset="1" stop-color="#EA422A"/></linearGradient></defs></svg>