<svg width="38" height="38" fill="none" xmlns="http://www.w3.org/2000/svg"><path d="M9.12 0c-.397 0-.801.145-1.088.432A1.545 1.545 0 007.6 1.52v1.52H3.04c-.397 0-.801.145-1.088.432A1.545 1.545 0 001.52 4.56v30.4c0 .397.145.801.432 1.088.287.287.691.432 1.088.432h31.92c.397 0 .801-.145 1.088-.432.287-.287.432-.691.432-1.088V4.56c0-.397-.145-.801-.432-1.088a1.546 1.546 0 00-1.088-.432H30.4V1.52c0-.397-.145-.802-.432-1.088A1.546 1.546 0 0028.88 0h-1.52c-.397 0-.802.145-1.088.432a1.545 1.545 0 00-.432 1.088v1.52H12.16V1.52c0-.397-.145-.802-.432-1.088A1.546 1.546 0 0010.64 0H9.12zm0 1.52h1.52v4.56H9.12V1.52zm18.24 0h1.52v2.152a.764.764 0 000 .248v2.16h-1.52V1.52zM3.04 4.56H7.6v1.52c0 .397.145.801.432 1.088.287.287.691.432 1.088.432h1.52c.397 0 .801-.145 1.088-.432.287-.287.432-.691.432-1.088V4.56h13.68v1.52c0 .397.145.801.432 1.088.287.287.691.432 1.088.432h1.52c.397 0 .802-.145 1.088-.432.287-.287.432-.691.432-1.088V4.56h4.56v5.32H3.04V4.56zm0 6.84h31.92v23.56H3.04V11.4zm10.628 3.03a.77.77 0 00-.108.01h-5.2a.76.76 0 00-.76.76v5.192a.76.76 0 000 .248v5.072a.76.76 0 000 .248v5.2a.76.76 0 00.76.76h5.192a.758.758 0 00.248 0h5.072a.758.758 0 00.248 0h5.072a.758.758 0 00.248 0h5.2a.76.76 0 00.76-.76v-5.192a.758.758 0 000-.248v-5.072a.758.758 0 000-.248v-5.2a.76.76 0 00-.76-.76h-5.192a.758.758 0 00-.248 0h-5.072a.758.758 0 00-.248 0h-5.072a.768.768 0 00-.14-.01zM9.12 15.96h3.8v3.8h-3.8v-3.8zm5.32 0h3.8v3.8h-3.8v-3.8zm5.32 0h3.8v3.8h-3.8v-3.8zm5.32 0h3.8v3.8h-3.8v-3.8zM9.12 21.28h3.8v3.8h-3.8v-3.8zm5.32 0h3.8v3.8h-3.8v-3.8zm5.32 0h3.8v3.8h-3.8v-3.8zm5.32 0h3.8v3.8h-3.8v-3.8zM9.12 26.6h3.8v3.8h-3.8v-3.8zm5.32 0h3.8v3.8h-3.8v-3.8zm5.32 0h3.8v3.8h-3.8v-3.8zm5.32 0h3.8v3.8h-3.8v-3.8z" fill="url(#paint0_linear_51_1277)"/><defs><linearGradient id="paint0_linear_51_1277" x1="19" y1="0" x2="19" y2="36.48" gradientUnits="userSpaceOnUse"><stop stop-color="#FFC619"/><stop offset=".474" stop-color="#F69020"/><stop offset="1" stop-color="#EA422A"/></linearGradient></defs></svg>