<svg width="41" height="41" fill="none" xmlns="http://www.w3.org/2000/svg"><path d="M18.86 1.64v3.35c-8.738.828-15.59 8.198-15.59 17.15 0 9.506 7.724 17.23 17.23 17.23s17.23-7.724 17.23-17.23c0-8.953-6.852-16.322-15.59-17.15V1.64h-3.28zm15.615.82l-2.319 2.319 1.059 1.059-1.235 1.236 1.36 1.36 1.235-1.237 1.06 1.06 2.319-2.319-3.479-3.478zM20.5 6.57c8.61 0 15.57 6.96 15.57 15.57S29.11 37.71 20.5 37.71 4.93 30.75 4.93 22.14 11.89 6.57 20.5 6.57zm-.013 3.25a.83.83 0 00-.816.84v9.166a2.46 2.46 0 00-1.63 2.314 2.46 2.46 0 001.63 2.313v1.787a.83.83 0 001.659 0v-1.786a2.46 2.46 0 001.63-2.314 2.46 2.46 0 00-1.63-2.313V10.66a.828.828 0 00-.843-.84z" fill="url(#paint0_linear_51_1296)"/><defs><linearGradient id="paint0_linear_51_1296" x1="20.612" y1="1.64" x2="20.612" y2="39.37" gradientUnits="userSpaceOnUse"><stop stop-color="#FFC619"/><stop offset=".495" stop-color="#F69020"/><stop offset="1" stop-color="#EA422A"/></linearGradient></defs></svg>